<svg width="1440" height="900" viewBox="0 0 1440 900" fill="none" xmlns="http://www.w3.org/2000/svg">
<g clip-path="url(#clip0)">
<rect width="1440" height="900" fill="black"/>
<path d="M2.36602 178.753L-59.2679 72L2.36602 -34.7532H125.634L187.268 72L125.634 178.753H2.36602Z" fill="#15339C" stroke="black" stroke-width="3"/>
<path d="M2.36602 428.753L-59.2679 322L2.36602 215.247H125.634L187.268 322L125.634 428.753H2.36602Z" fill="#FC2525" stroke="black" stroke-width="3"/>
<path d="M2.36602 678.753L-59.2679 572L2.36602 465.247H125.634L187.268 572L125.634 678.753H2.36602Z" fill="#99D5BC" stroke="black" stroke-width="3"/>
<path d="M2.36602 928.753L-59.2679 822L2.36602 715.247H125.634L187.268 822L125.634 928.753H2.36602Z" fill="#15339C" stroke="black" stroke-width="3"/>
<path d="M222.366 53.7532L160.732 -53L222.366 -159.753H345.634L407.268 -53L345.634 53.7532L222.366 53.7532Z" fill="#FC2525" stroke="black" stroke-width="3"/>
<path d="M222.366 303.753L160.732 197L222.366 90.2468H345.634L407.268 197L345.634 303.753H222.366Z" stroke="black" stroke-width="3"/>
<path d="M222.366 803.753L160.732 697L222.366 590.247H345.634L407.268 697L345.634 803.753H222.366Z" stroke="black" stroke-width="3"/>
<path d="M222.366 803.753L160.732 697L222.366 590.247H345.634L407.268 697L345.634 803.753H222.366Z" fill="#99D5BC" stroke="black" stroke-width="3"/>
<path d="M222.366 303.753L160.732 197L222.366 90.2468H345.634L407.268 197L345.634 303.753H222.366Z" fill="#FC2525" stroke="black" stroke-width="3"/>
<path d="M1096.37 803.753L1034.73 697L1096.37 590.247H1219.63L1281.27 697L1219.63 803.753H1096.37Z" fill="#FC2525" stroke="black" stroke-width="3"/>
<path d="M1096.37 303.753L1034.73 197L1096.37 90.2468H1219.63L1281.27 197L1219.63 303.753H1096.37Z" fill="#99D5BC" stroke="black" stroke-width="3"/>
<path d="M1096.37 53.7532L1034.73 -53L1096.37 -159.753H1219.63L1281.27 -53L1219.63 53.7532L1096.37 53.7532Z" fill="#FC2525" stroke="black" stroke-width="3"/>
<path d="M1096.37 303.753L1034.73 197L1096.37 90.2468H1219.63L1281.27 197L1219.63 303.753H1096.37Z" stroke="black" stroke-width="3"/>
<path d="M1096.37 803.753L1034.73 697L1096.37 590.247H1219.63L1281.27 697L1219.63 803.753H1096.37Z" stroke="black" stroke-width="3"/>
<path d="M1313.37 178.753L1251.73 72L1313.37 -34.7532H1436.63L1498.27 72L1436.63 178.753H1313.37Z" fill="#15339C" stroke="black" stroke-width="3"/>
<path d="M1313.37 428.753L1251.73 322L1313.37 215.247H1436.63L1498.27 322L1436.63 428.753H1313.37Z" fill="#99D5BC" stroke="black" stroke-width="3"/>
<path d="M1313.37 678.753L1251.73 572L1313.37 465.247H1436.63L1498.27 572L1436.63 678.753H1313.37Z" fill="#FC2525" stroke="black" stroke-width="3"/>
<path d="M1313.37 928.753L1251.73 822L1313.37 715.247H1436.63L1498.27 822L1436.63 928.753H1313.37Z" fill="#15339C" stroke="black" stroke-width="3"/>
<path d="M659.366 53.7532L597.732 -53L659.366 -159.753H782.634L844.268 -53L782.634 53.7532L659.366 53.7532Z" fill="#99D5BC" stroke="black" stroke-width="3"/>
<path d="M515.366 803.168L309.732 447L515.366 90.8315H926.634L1132.27 447L926.634 803.168H515.366Z" fill="#15339C" stroke="black" stroke-width="3"/>
<path d="M1096.37 1053.75L1034.73 947L1096.37 840.247H1219.63L1281.27 947L1219.63 1053.75H1096.37Z" fill="#FC2525" stroke="black" stroke-width="3"/>
<path d="M659.366 1053.75L597.732 947L659.366 840.247H782.634L844.268 947L782.634 1053.75H659.366Z" fill="#99D5BC" stroke="black" stroke-width="3"/>
<path d="M222.366 1053.75L160.732 947L222.366 840.247H345.634L407.268 947L345.634 1053.75H222.366Z" fill="#FC2525" stroke="black" stroke-width="3"/>
<path d="M222.366 553.753L160.732 447L222.366 340.247H345.634L407.268 447L345.634 553.753H222.366Z" fill="black" stroke="black" stroke-width="3"/>
<path d="M439.366 178.753L377.732 72L439.366 -34.7532H562.634L624.268 72L562.634 178.753H439.366Z" fill="black" stroke="black" stroke-width="3"/>
<path d="M439.366 928.753L377.732 822L439.366 715.247H562.634L624.268 822L562.634 928.753H439.366Z" fill="black" stroke="black" stroke-width="3"/>
<path d="M876.366 178.753L814.732 72L876.366 -34.7532H999.634L1061.27 72L999.634 178.753H876.366Z" fill="black" stroke="black" stroke-width="3"/>
<path d="M876.366 928.753L814.732 822L876.366 715.247H999.634L1061.27 822L999.634 928.753H876.366Z" fill="black" stroke="black" stroke-width="3"/>
<path d="M1096.37 553.753L1034.73 447L1096.37 340.247H1219.63L1281.27 447L1219.63 553.753H1096.37Z" fill="black" stroke="black" stroke-width="3"/>
<path d="M476 449.5L598.5 240.355H843.5L966 449.5L843.5 658.645H598.5L476 449.5Z" fill="#99D5BC"/>
<path d="M596 447L658.5 338.747H783.5L846 447L783.5 555.253H658.5L596 447Z" fill="#FC2525"/>
</g>
<defs>
<clipPath id="clip0">
<rect width="1440" height="900" fill="white"/>
</clipPath>
</defs>
</svg>
